<?xml version="1.0"?>
<svg version="1.1" xmlns="http://www.w3.org/2000/svg" width="200px" height="200px" style="border: dashed 2px #aaa"><path fill="#5c121b" d="M39.939,104.988q-1.073,0.435-1.8415,0.435t-0.7685-0.319q0-0.203,0.8555-0.232t1.2325-0.203q1.102-0.58,1.102-1.711q0-0.58-0.319-1.218q-0.928-1.653-4.495-1.653q-2.059,0-4.118,0.6235t-3.451,1.914t-1.392,2.3925q0,1.682,3.335,2.465l3.422,0.638q2.059,0.377,3.074,1.044q1.334,0.812,1.334,2.32q0,0.609-0.203,1.305q-0.928,3.132-4.785,4.785q-3.219,1.421-7.598,1.421q-1.247,0-2.175-0.116q0.928,0.522,2.436,0.899q0.116,0.029,0.116,0.116q0,0.261-0.609,0.261q-1.189,0-2.958-1.421q-2.407-0.377-3.596-1.334q-0.754-0.609-1.392-1.798t-0.638-2.146t0.377-1.595q0.87-1.537,2.204-1.537q1.015,0,1.189,1.711q0.406,3.306,0.551,3.77q0.435,1.421,1.479,2.407q1.218,0.261,2.639,0.261q3.132,0,6.148-1.247t4.35-3.538q0.551-0.899,0.551-1.595q0-1.363-2.407-2.117l-5.104-1.16q-1.566-0.377-2.5085-1.247t-0.9425-2.001q0-1.74,2.175-3.48q1.653-1.334,4.0455-2.0735t4.698-0.7395t3.8135,0.667q1.943,0.899,1.943,2.6245t-1.769,2.4215z M21.263,117.922q-1.682-1.856-2.146-5.075q-0.261-1.827-0.493-1.827t-0.435,0.1305t-0.406,0.5655t-0.203,1.131q0,2.233,1.566,3.828q0.783,0.812,2.117,1.247z M47.54193,108.062l4.176-0.058q0.087,0.058,0.087,0.087q0,0.261-3.6105,0.725t-3.9005,0.551q-0.551,0.493-2.03,2.9435t-1.479,3.5815q0,1.073,1.479,1.073q0.696,0,1.827-0.435t1.74-0.812q1.624-1.015,3.48-2.987q0.406-0.406,0.551-0.406q0.087,0,0.087,0.174t-0.435,0.696q-1.508,1.856-3.393,2.987q-2.262,1.392-4.321,1.392q-0.899,0-1.4645-0.3915t-0.5655-1.5805t1.044-3.2625t1.595-3.0885q-0.406,0.087-0.696,0.087q-0.841,0-0.841-0.667q0-0.493,0.696-0.696q0.087,0,0.261-0.029l1.682,0q0.522-0.667,1.189-1.537q0.812-1.044,1.102-1.044t0.725,0.232t0.435,0.551t-1.392,1.885q0.754,0.029,1.972,0.029z M56.98636,105.8435q0.3915,0.2755,0.3915,0.6525t-0.3625,0.6525t-0.7975,0.2755t-0.7975-0.319t-0.3625-0.725q0-0.812,1.102-0.812q0.435,0,0.8265,0.2755z M50.91086,117.719q-1.479,0-1.479-1.914q0-1.566,1.711-4.3355t2.755-2.7985q0.29,0,0.6525,0.232t0.3625,0.464q-0.145,0.203-0.348,0.4495t-0.435,0.5365t-0.638,0.8265t-0.783,1.0295q-2.175,2.813-2.175,3.8715t0.725,1.0585q0.609,0,1.653-0.667q2.436-1.508,3.857-3.306q0.522-0.667,0.7105-0.667t0.1885,0.232t-0.667,0.928t-1.0585,1.102t-0.5365,0.5365t-0.5365,0.493t-0.5945,0.5075t-0.58,0.435t-0.667,0.4205t-0.667,0.3045q-0.609,0.261-1.45,0.261z M59.90579,117.777q-0.319,0-0.58-0.087q-1.856-0.522-1.856-2.088q0-2.03,2.552-4.698t4.582-2.668q0.667,0,1.0875,0.3625t0.4205,0.986t-0.377,1.305t-1.131,0.6815t-0.754-0.464q0-0.319,0.3915-0.9715t0.3915-0.696t-0.087-0.0435q-0.812,0.087-2.2185,1.16t-1.9285,1.798l-1.131,1.653q-0.29,0.464-0.4205,1.102t-0.1305,0.957t0.3625,0.725t1.0295,0.406q1.45,0,3.596-1.6965t3.306-3.2335q0.145-0.174,0.348-0.174t0.203,0.116t-0.145,0.29q-1.595,2.117-3.8135,3.6975t-3.6975,1.5805z M73.13472,117.748q-2.291,0-3.886-3.625q-0.406,0.609-1.827,3.422q-1.044-0.406-1.044-1.102q0-1.247,3.741-6.844t5.133-6.583q0.116-0.087,0.464-0.087q0.899,0,0.899,0.464q0,0.232-2.0155,2.61t-2.2475,2.871q2.639-1.363,4.205-1.363q0.899,0,1.537,0.725q0.609,0.609,0.609,1.247l0,0.174q-0.232,1.653-2.32,2.726q-1.682,0.899-3.132,0.899t-2.03-0.377q-0.174-0.029-0.2755,0.087t-0.0435,0.29q0.812,3.596,2.697,3.596q0.986,0,2.5375-1.102t3.2335-3.103q0.203-0.203,0.3625-0.203t0.1595,0.1595t-0.203,0.4495q-1.566,1.914-2.958,3.016q-2.117,1.653-3.596,1.653z M77.31072,108.874q0-0.232-0.261-0.464t-0.551-0.232q-1.566,0-3.7555,1.305t-2.6825,2.958q0.261,0,1.392,0.087q1.305,0,3.422-1.073q2.436-1.218,2.436-2.581z M78.27265,120.764q1.392,1.74,2.407,1.74q1.653,0,3.567-2.639q1.392-1.943,2.726-4.901l1.102-2.668l-4.263,3.335q-1.972,1.537-3.161,1.537q-0.638,0-1.015-0.435t-0.377-0.986q0-1.247,2.146-4.1035t3.132-2.8565t0.986,0.667q0,0.261-2.5665,3.0015t-2.5665,3.6975q0,0.377,0.493,0.377q0.928,0,3.7265-2.175t4.2195-3.596q0.319-0.377,0.899-1.131q0.551-0.638,1.218-0.638t0.667,0.638q0,0.116-1.305,2.059t-1.363,2.059q-0.899,1.74-2.755,5.075q-2.813,4.524-5.626,4.524q-0.928,0-1.624-0.7975t-0.667-1.7835z M110.58851,117.052q-0.696,1.073-0.696,1.4065t0.261,0.4495q0,0.058-0.4785,0.3625t-1.3195,0.3045t-0.841-0.435q0-0.754,2.8565-5.0025t3.7555-5.8725q1.972-3.538,1.972-5.597q0-0.812-0.319-1.508q-0.493-1.044-2.378-1.044q-3.451,0-7.337,3.161q-2.958,2.436-4.553,5.046q-1.45,2.465-1.45,4.408q0,2.784,2.581,2.842l0.232,0q3.422,0,5.191-2.407q0.696-0.957,0.696-1.624t-0.319-0.841q-0.029-0.029-0.029-0.116t0.174-0.087q0.754,0,0.754,0.986q0,0.609-0.58,1.653t-2.1025,1.972t-3.4655,0.928t-3.074-1.131t-1.131-3.045q0-4.524,6.206-9.512q1.566-1.247,4.0745-2.088t4.553-0.841t2.8855,0.7685t0.841,2.1315q0,3.306-4.002,9.367q0.899-1.131,2.929-2.871q7.221-6.061,12.412-7.975q0.261-0.116,0.58-0.116q1.102,0,1.392,1.247q0.145,0.493-1.392,2.059q-3.625,3.712-6.148,8.12t-2.523,6.322q0,0.464,0.174,0.6525t0.551,0.116t1.5805-0.5945t1.5805-0.609q0.145,0.058,0.145,0.145q0,0.435-1.5225,1.218t-2.2765,0.783t-0.957-0.261q-0.522-0.725-0.522-1.827q0-2.494,2.668-7.163q1.711-2.929,5.278-7.888q-3.857,0.348-9.976,6.09q-4.872,4.611-6.931,7.917z M136.66444,108.729l0.406-0.087q0.319,0,0.609,0.261t0.29,0.406t-1.798,2.7985t-1.798,3.6975q0,0.087,0.029,0.174q0.145,0.667,0.638,0.667q1.508,0,5.51-4.988q0.087-0.116,0.203-0.116t0.116,0.2175t-0.261,0.5655q-3.712,4.959-5.655,4.959q-0.261,0-0.493-0.087q-1.276-0.493-1.276-1.914q0-0.493,0.116-0.986l-1.798,1.74q-1.711,1.508-2.4795,1.508t-1.4645-0.493q-0.783-0.58-0.783-1.537q0-2.117,2.958-5.0605t5.423-2.9435q0.957,0,1.276,0.667q0.087,0.232,0.145,0.3915t0.087,0.1595z M127.99344,115.863q0,1.044,0.725,1.044q1.682,0,4.582-3.683l3.074-4.234q-0.232-0.406-0.754-0.406q-1.769,0-4.698,2.7405t-2.929,4.5385z M148.12437,106.003q0.87,0,1.479,0.58t0.609,1.624q0,2.291-3.799,5.742q-3.219,2.9-5.191,3.538q-0.319,0-0.841-0.348t-0.522-0.638q0-0.638,1.392-4.321t1.914-4.118q0.116-0.116,0.377-0.116t0.551,0.2755t0.319,0.6525q0,0.029-1.4355,3.364t-1.3485,3.973q1.247-0.377,4.4515-3.045t3.2045-4.785q0-1.276-1.276-1.856q-0.203-0.087-0.203-0.261q0-0.261,0.319-0.261z M156.8873,110.179q0-1.972,1.218-1.972q0.116,0,0.261,0.029q0.493,0.087,0.493,0.754t-0.232,1.682q-0.232,0.754-0.319,1.131q0.087,0.493,0.4785,1.2615t1.073,0.7685t1.5225-0.928q0.174-0.203,0.3335-0.203t0.174,0.1885t-0.2175,0.5075q-0.899,1.073-1.885,1.073q-1.421,0-2.291-2.088q-0.899,2.059-2.552,3.5525t-3.277,1.4935q-1.537,0-1.537-2.32q0-1.827,3.4075-6.728t5.2055-4.901q0.377,0,0.6815,0.232t0.3045,0.551q0-0.029-0.4205,0.435t-2.291,2.494t-3.6685,4.466t-1.798,3.77q0,0.348,0.1885,0.754t0.6235,0.406q1.276,0,2.987-1.972q1.421-1.74,1.74-2.929q-0.203-0.609-0.203-1.508z M171.76923,108.729l0.406-0.087q0.319,0,0.609,0.261t0.29,0.406t-1.798,2.7985t-1.798,3.6975q0,0.087,0.029,0.174q0.145,0.667,0.638,0.667q1.508,0,5.51-4.988q0.087-0.116,0.203-0.116t0.116,0.2175t-0.261,0.5655q-3.712,4.959-5.655,4.959q-0.261,0-0.493-0.087q-1.276-0.493-1.276-1.914q0-0.493,0.116-0.986l-1.798,1.74q-1.711,1.508-2.4795,1.508t-1.4645-0.493q-0.783-0.58-0.783-1.537q0-2.117,2.958-5.0605t5.423-2.9435q0.957,0,1.276,0.667q0.087,0.232,0.145,0.3915t0.087,0.1595z M163.09823,115.863q0,1.044,0.725,1.044q1.682,0,4.582-3.683l3.074-4.234q-0.232-0.406-0.754-0.406q-1.769,0-4.698,2.7405t-2.929,4.5385z M181.28616,117.545q-2.175,0-2.175-2.407q0-1.218,0.638-2.668t1.392-2.436q-0.145,0.029-0.377,0.029q-0.696,0-1.16-0.986l-2.146,2.784q-1.798,2.233-2.088,2.233q-0.145,0-0.145-0.116q0-0.29,0.493-0.841q2.523-2.929,3.567-4.959q0.667-2.523,1.682-2.523q0.667,0,0.667,0.58t-0.725,1.479l-0.696,0.928q0,0.609,0.899,0.609q0.522,0,1.16-0.377l0.754-0.464q0.058-0.029,0.29-0.029t0.493,0.29t0.174,0.522l-2.001,2.523q-1.856,2.378-1.856,3.7555t1.276,1.3775q1.334,0,3.277-1.421q1.16-0.841,2.117-1.885q0.899-1.044,0.986-1.044q0.203,0,0.203,0.2175t-0.261,0.5075l-0.928,1.044q-0.783,0.812-1.74,1.566q-2.291,1.711-3.77,1.711z"/><path fill="#" d=""/></svg>
